<svg xmlns="http://www.w3.org/2000/svg" fill="none" color="currentColor" viewBox="0 0 24 24"><path stroke="currentColor" stroke-linejoin="round" stroke-width="1.5" d="M4 3H3a1 1 0 0 0-1 1v14l1.5 3L5 18V4a1 1 0 0 0-1-1Z"/><path stroke="currentColor" stroke-linecap="round" stroke-linejoin="round" stroke-width="1.5" d="M21 12V8c0-2.36 0-3.54-.73-4.27C19.54 3 18.36 3 16 3h-3c-2.36 0-3.54 0-4.27.73C8 4.46 8 5.64 8 8v8c0 2.36 0 3.54.73 4.27.62.62 1.56.72 3.27.73M12 7h5M12 11h5"/><path stroke="currentColor" stroke-linecap="round" stroke-linejoin="round" stroke-width="1.5" d="M14 19s1.5.5 2.5 2c0 0 1.5-4 5.5-6M2 7h3"/></svg>