<svg xmlns="http://www.w3.org/2000/svg" fill="none" color="currentColor" viewBox="0 0 24 24"><path stroke="currentColor" stroke-linecap="round" stroke-linejoin="round" stroke-width="1.5" d="M15 7.5s.5 0 1 1c0 0 1.59-2.5 3-3"/><path stroke="currentColor" stroke-linecap="round" stroke-width="1.5" d="M22 7a5 5 0 1 1-10 0 5 5 0 0 1 10 0Z"/><path fill="currentColor" d="m3.6 21 .47-.58-.46.59Zm-.55-.51.56-.5-.56.5Zm17.9 0-.56-.5.56.5Zm-.56.52-.46-.59.46.59ZM3.61 6.99l-.47-.59.47.6Zm-.56.52.56.5-.56-.5Zm19.7 5.73a.75.75 0 1 0-1.5 0h1.5ZM9.07 6.75a.75.75 0 0 0-.01-1.5v1.5Zm4.43 14.5h-3v1.5h3v-1.5Zm-3 0c-1.9 0-3.26 0-4.3-.12a3.98 3.98 0 0 1-2.13-.7l-.93 1.17c.79.62 1.73.89 2.9 1.02 1.14.13 2.6.13 4.46.13v-1.5ZM1.25 14c0 1.75 0 3.13.14 4.22A4.86 4.86 0 0 0 2.49 21l1.12-1c-.38-.44-.61-1-.73-1.96A35.5 35.5 0 0 1 2.75 14h-1.5Zm2.82 6.42a3.62 3.62 0 0 1-.46-.43l-1.12 1c.2.22.42.42.65.6l.93-1.17ZM21.25 14c0 1.79 0 3.06-.13 4.03-.12.96-.35 1.52-.73 1.96l1.12 1c.66-.75.96-1.66 1.1-2.77.14-1.09.14-2.47.14-4.22h-1.5Zm-7.75 8.75c1.86 0 3.32 0 4.47-.13 1.16-.13 2.1-.4 2.89-1.02l-.93-1.18c-.47.37-1.1.6-2.13.71-1.04.12-2.4.12-4.3.12v1.5Zm6.89-2.76c-.14.15-.3.3-.46.43l.93 1.18c.23-.19.45-.4.65-.61l-1.12-1ZM2.75 14c0-1.79 0-3.06.13-4.03.12-.95.35-1.52.73-1.96l-1.12-1a4.86 4.86 0 0 0-1.1 2.77c-.14 1.09-.14 2.47-.14 4.22h1.5Zm.4-7.6c-.24.19-.46.4-.66.61l1.12 1c.14-.15.3-.3.46-.43L3.14 6.4Zm19.6 7.6v-.76h-1.5V14h1.5ZM9.05 5.25c-1.4.01-2.55.04-3.48.2-.96.14-1.75.42-2.43.95l.93 1.18c.41-.32.93-.53 1.73-.66.81-.13 1.85-.16 3.27-.17l-.01-1.5Z"/><path stroke="currentColor" stroke-linecap="round" stroke-linejoin="round" stroke-miterlimit="10" stroke-width="1.5" d="M10 18h1.5M14.5 18H18"/><path stroke="currentColor" stroke-linecap="round" stroke-linejoin="round" stroke-width="1.5" d="M2.5 11H10"/></svg>