<svg xmlns="http://www.w3.org/2000/svg" fill="none" color="currentColor" viewBox="0 0 24 24"><path stroke="currentColor" stroke-linecap="round" stroke-width="1.5" d="m19.5 5.5-.62 10.03c-.16 2.56-.24 3.84-.88 4.76a4 4 0 0 1-1.2 1.13c-.96.58-2.24.58-4.8.58-2.58 0-3.86 0-4.82-.59a4 4 0 0 1-1.2-1.13c-.64-.92-.72-2.2-.88-4.76L4.5 5.5M3 5.5h18m-4.94 0-.69-1.4c-.45-.94-.68-1.41-1.07-1.7a2 2 0 0 0-.27-.18c-.44-.22-.96-.22-2-.22-1.06 0-1.6 0-2.03.23a2 2 0 0 0-.28.18c-.4.3-.62.8-1.06 1.76l-.6 1.33"/></svg>