<svg xmlns="http://www.w3.org/2000/svg" fill="none" viewBox="0 0 20 20"><g stroke="currentColor" stroke-linecap="round" stroke-linejoin="round" stroke-width="1.5" clip-path="url(#a)"><path d="M12 12 8 8M15.55 17.9a1.67 1.67 0 0 1-2.36-2.35l-1.47 1.47a1.67 1.67 0 0 1-2.36-2.36l5.3-5.3a1.67 1.67 0 1 1 2.36 2.36l-1.47 1.47a1.67 1.67 0 0 1 2.35 2.36l-2.35 2.35ZM17.92 17.92l-1.17-1.17M3.25 3.25 2.08 2.08M5.34 10.64a1.67 1.67 0 0 1-2.36-2.36l1.47-1.47A1.67 1.67 0 1 1 2.1 4.45L4.45 2.1a1.67 1.67 0 1 1 2.36 2.35l1.47-1.47a1.67 1.67 0 0 1 2.36 2.36l-5.3 5.3Z"/></g></svg>