<svg width="25" height="24" viewBox="0 0 25 24" fill="none" xmlns="http://www.w3.org/2000/svg">
<path d="M16.9694 8.00012C16.7256 8.73149 16.224 9.29289 15.514 9.60765C13.2336 10.6186 11.5879 12.2643 10.577 14.5447C10.2622 15.2547 9.70079 15.7563 8.96942 16.0001" stroke="currentColor" stroke-width="1.5" stroke-linejoin="round"/>
<path d="M4.16942 20.8001L2.96942 22.0001M21.7694 3.20012L22.9694 2.00012" stroke="currentColor" stroke-width="1.5" stroke-linecap="round" stroke-linejoin="round"/>
<path d="M18.7576 2.42212L17.2454 3.87527L21.086 7.75174L22.5636 6.31701C23.0071 5.79462 23.1429 5.4011 22.5908 4.67633L21.485 3.51341L20.364 2.40761C19.6474 1.76485 19.083 2.1107 18.7576 2.42212Z" stroke="currentColor" stroke-width="1.5" stroke-linecap="round" stroke-linejoin="round"/>
<path d="M14.9809 3.75768C16.0915 2.58386 16.8521 3.41928 17.2427 3.88447L21.0504 7.70744C21.5243 8.08738 22.3913 8.81634 21.2454 9.95142C21.0605 10.1346 20.8792 10.3264 20.6783 10.4917C19.9364 11.102 19.2244 10.5961 18.8471 10.1312L14.9714 6.2555C14.5633 5.88894 13.8582 5.22479 14.4537 4.33701C14.6142 4.13213 14.802 3.94673 14.9809 3.75768Z" stroke="currentColor" stroke-width="1.5" stroke-linecap="round" stroke-linejoin="round"/>
<path d="M5.55685 21.6203L4.41551 20.4923L3.33155 19.3501C2.68833 18.7069 3.05942 18.0636 3.37707 17.7443L4.85914 16.2604L8.71573 20.1337L7.19776 21.6248C6.6669 22.0581 6.3029 22.1908 5.58892 21.6248M7.19275 13.9245C6.80214 13.4593 6.04151 12.6239 4.93091 13.7977C4.75204 13.9867 4.56423 14.1721 4.40374 14.377C3.80825 15.2648 4.51328 15.929 4.92136 16.2955L8.79714 20.1712C9.17439 20.6361 9.8864 21.142 10.6283 20.5317C10.8293 20.3664 11.0105 20.1746 11.1954 19.9914C12.3413 18.8564 11.4743 18.1274 11.0004 17.7475L7.19275 13.9245Z" stroke="currentColor" stroke-width="1.5" stroke-linecap="round" stroke-linejoin="round"/>
</svg>
