<svg xmlns="http://www.w3.org/2000/svg" fill="none" color="currentColor" viewBox="0 0 24 24"><path stroke="currentColor" stroke-linecap="round" stroke-linejoin="round" stroke-width="1.5" d="m3 16 4.47-4.47a1.81 1.81 0 0 1 2.56 0L14 15.5m1.5 1.5L14 15.5m7 .5-2.47-2.47a1.81 1.81 0 0 0-2.56 0L14 15.5"/><path stroke="currentColor" stroke-linecap="round" stroke-linejoin="round" stroke-width="1.5" d="M12 2.5c-4.23 0-6.34 0-7.75 1.2a5 5 0 0 0-.55.55C2.5 5.65 2.5 7.77 2.5 12s0 6.34 1.2 7.75a5 5 0 0 0 .55.55c1.4 1.2 3.52 1.2 7.75 1.2s6.34 0 7.75-1.2a5 5 0 0 0 .55-.55c1.2-1.4 1.2-3.52 1.2-7.75M15.5 5.5c.59-.6 2.16-3 3-3 .84 0 2.41 2.4 3 3m-3-2.5v6.5"/></svg>