<svg xmlns="http://www.w3.org/2000/svg" fill="none" color="currentColor" viewBox="0 0 24 24"><path stroke="currentColor" stroke-linecap="round" stroke-width="1.5" d="M15 17.63A3.54 3.54 0 0 1 11.32 21c-.49-.01-1.08-.18-2.27-.52-2.86-.8-5.34-2.16-5.94-5.2C3 14.72 3 14.1 3 12.84v-1.68c0-1.25 0-1.88.11-2.44.6-3.04 3.08-4.4 5.94-5.2 1.19-.34 1.78-.5 2.27-.52A3.54 3.54 0 0 1 15 6.38"/><path stroke="currentColor" stroke-linecap="round" stroke-linejoin="round" stroke-width="1.5" d="M21 12H10m11 0c0-.7-2-2-2.5-2.5M21 12c0 .7-2 2-2.5 2.5"/></svg>