<svg xmlns="http://www.w3.org/2000/svg" fill="none" viewBox="0 0 576 48"><path fill="#FD0" fill-rule="evenodd" d="M30.23 0H0v31.93C0 40.8 7.2 48 16.07 48H48V0H30.23Z" clip-rule="evenodd"/><path fill="#0F265C" fill-rule="evenodd" d="M40 24h-7.18v-8.73H24V8h16v16Z" clip-rule="evenodd"/><path fill="#0F265C" d="M573.33 42.09 560.21 8.46a3.88 3.88 0 0 0-3.62-2.45h-4.65l-14.1 36.1h7.94l2.83-7.1h13.94l2.87 7.1 7.91-.02Zm-13.26-13.9h-8.95l4.48-11.8 4.47 11.8Zm-35.95 13.9h7.63V5.99h-3.72a3.92 3.92 0 0 0-3.9 3.9v10.25h-15.1V5.98h-7.68v36.1h7.67V27.17h15.1V42.1Zm-52.4-9.67a11.4 11.4 0 0 1-3.3-8.47 10.92 10.92 0 0 1 3.3-8.27 10.45 10.45 0 0 1 7.24-3.1c2.62 0 5.16.85 7.24 2.46a3.79 3.79 0 0 0 5.04-.44l2.41-2.46a17.56 17.56 0 0 0-14.35-6.8 18.66 18.66 0 0 0-13.48 5.16 17.76 17.76 0 0 0-5.38 13.55 17.7 17.7 0 0 0 5.38 13.45 19.44 19.44 0 0 0 13.75 5.08c5.66.19 11.08-2.33 14.64-6.8l-5.09-5.4a11.61 11.61 0 0 1-9.65 5.05 10.77 10.77 0 0 1-7.74-3.01Zm-25.08 9.67h6.95V5.99h-7.6v24.54L432.55 7.95a3.85 3.85 0 0 0-3.33-1.9h-7V42.1h7.65V17.74l13.44 22.46a3.84 3.84 0 0 0 3.33 1.89Zm-41.42 0h7.62V5.99h-7.62v36.1Zm-16.89 0h7.6V5.99h-3.8c-1.03-.01-2.02.4-2.74 1.13a3.96 3.96 0 0 0-1.15 2.77v10.25H373.1V5.98h-7.52v36.1h7.64V27.17h15.13l-.03 14.93Zm-52.53-9.67a11.4 11.4 0 0 1-3.29-8.47c-.14-2.96.92-5.86 2.93-8a10.55 10.55 0 0 1 7.71-3.37c2.62-.02 5.16.85 7.24 2.46a3.86 3.86 0 0 0 5.11-.4l2.42-2.45c-3.5-4.47-8.87-7-14.48-6.8a18.56 18.56 0 0 0-13.46 5.16 17.7 17.7 0 0 0-5.4 13.57 17.63 17.63 0 0 0 5.4 13.45c3.8 3.47 8.8 5.3 13.9 5.08 5.6.14 10.94-2.37 14.47-6.8l-5.09-5.4c-2.2 3.2-5.81 5.1-9.65 5.06a10.78 10.78 0 0 1-7.86-3.1h.05Zm-25.7 9.67h7.6V5.99h-7.6v36.1Zm-6.44-24c.15-3.42-1.3-6.7-3.88-8.87a15.12 15.12 0 0 0-10.23-3.29h-14.62V42.1h7.67V30.65h6.95c3.7.17 7.32-1.06 10.18-3.44a11.68 11.68 0 0 0 3.9-9.13h.03Zm-7.64.14c0 3.56-2.63 5.37-7.82 5.37h-5.6V13.03h5.6c5.3 0 7.82 1.54 7.82 5.2ZM250.67 37.4a17.9 17.9 0 0 0 5.4-13.45 17.7 17.7 0 0 0-5.4-13.3 18.07 18.07 0 0 0-13.27-5.3 17.85 17.85 0 0 0-13.15 5.3 17.93 17.93 0 0 0-5.35 13.3 18.16 18.16 0 0 0 18.5 18.63c4.93.13 9.71-1.77 13.26-5.26v.08Zm-2.42-13.45c.1 2.99-.95 5.9-2.92 8.12a9.77 9.77 0 0 1-7.6 3.36 9.97 9.97 0 0 1-7.9-3.28 11.78 11.78 0 0 1-3.07-8.2c-.08-2.99.98-5.89 2.94-8.1a10.14 10.14 0 0 1 8.04-3.22 9.9 9.9 0 0 1 7.67 3.34 11.6 11.6 0 0 1 2.9 7.98h-.06Zm-55.87 8.47a11.3 11.3 0 0 1-3.18-8.47c-.14-2.96.91-5.86 2.92-8a10.55 10.55 0 0 1 7.72-3.37c2.61 0 5.15.85 7.23 2.46a3.79 3.79 0 0 0 5.05-.44l2.4-2.46c-3.48-4.47-8.85-7-14.47-6.8a18.63 18.63 0 0 0-13.48 5.16 17.78 17.78 0 0 0-5.4 13.55 17.7 17.7 0 0 0 5.4 13.45 19.44 19.44 0 0 0 13.73 5.08c5.66.19 11.09-2.33 14.66-6.8l-5.09-5.4a11.61 11.61 0 0 1-9.77 5.05 10.78 10.78 0 0 1-7.86-3.09l.14.08Zm-24.96 9.67h6.94V5.99h-7.6v24.54L153.32 7.87a3.87 3.87 0 0 0-3.33-1.89h-7v36.1h7.67V17.75L164.1 40.2a3.85 3.85 0 0 0 3.33 1.89Zm-37.97 0h7.91l-13-33.63a3.88 3.88 0 0 0-3.62-2.45h-4.78l-14.08 36.08h8l2.83-7.1h13.94l2.8 7.1Zm-5.36-13.9h-8.95l4.4-11.8 4.55 11.8Zm-29.81-4.9a8.88 8.88 0 0 0 3.71-7.37c0-6.43-4.82-9.99-12.45-9.99h-16.2V42.1H86.4c3.24.15 6.43-.87 9-2.88a9.6 9.6 0 0 0 3.45-7.68 9.85 9.85 0 0 0-4.58-8.24Zm-4-6.53c0 2.45-2.01 3.7-5.99 3.7h-7.24V13.1h7c4.46 0 6.27.98 6.27 3.73l-.05-.07Zm.9 14.18c0 3.05-2.21 4.18-6.48 4.18H77v-8.23h7.87c4.17 0 6.27 1.35 6.27 3.98l.05.07Z"/></svg>