<svg width="25" height="25" viewBox="0 0 25 25" fill="none" xmlns="http://www.w3.org/2000/svg">
<path d="M1.5625 -3.05176e-05L0 1.56247L3.43888 6.3769C3.73218 6.78752 4.20573 7.03122 4.71034 7.03122H4.82154C5.23594 7.03122 5.63337 7.19584 5.9264 7.48887L10.1061 11.6685L6.01717 15.8162C5.59563 15.6918 5.14937 15.625 4.6875 15.625C2.09866 15.625 0 17.7236 0 20.3125C0 22.9013 2.09866 25 4.6875 25C7.27634 25 9.375 22.9013 9.375 20.3125C9.375 19.8506 9.3082 19.4043 9.18374 18.9828L13.3314 14.8939L14.8438 16.4062L14.3679 17.8338C14.1807 18.3953 14.3268 19.0143 14.7453 19.4328L19.8549 24.5423C20.16 24.8474 20.5598 25 20.9597 25C21.3596 25 21.7595 24.8474 22.0646 24.5423L24.5424 22.0645C24.8474 21.7594 25 21.3596 25 20.9597C25 20.5598 24.8475 20.1599 24.5424 19.8548L19.4328 14.7453C19.0143 14.3268 18.3953 14.1807 17.8339 14.3678L16.4062 14.8437L14.9051 13.3426L19.0924 9.2146C19.4814 9.31919 19.8904 9.37497 20.3125 9.37497C22.9013 9.37497 25 7.2763 25 4.68747C25 4.26756 24.9448 3.86056 24.8412 3.47331L21.4959 6.81866L18.75 6.24994L18.1813 3.5041L21.5267 0.158743C21.1394 0.0551818 20.7324 -3.05176e-05 20.3125 -3.05176e-05C17.7237 -3.05176e-05 15.625 2.09863 15.625 4.68747C15.625 5.10954 15.6808 5.51858 15.7854 5.90762L11.6574 10.0949L7.4889 5.92637C7.19587 5.63334 7.03125 5.23591 7.03125 4.82151V4.71031C7.03125 4.2057 6.78755 3.73215 6.37693 3.43885L1.5625 -3.05176e-05ZM16.6351 16.635C16.9402 16.3299 17.4348 16.3299 17.7399 16.635L22.2934 21.1885C22.5985 21.4936 22.5985 21.9883 22.2934 22.2934C21.9883 22.5985 21.4936 22.5985 21.1885 22.2934L16.6351 17.7399C16.33 17.4348 16.33 16.9401 16.6351 16.635ZM4.6875 17.1874L5.42352 17.5656L6.25 17.6061L6.69833 18.3016L7.39383 18.7499L7.43435 19.5764L7.8125 20.3124L7.43435 21.0485L7.39383 21.8749L6.69833 22.3233L6.25 23.0188L5.42352 23.0593L4.6875 23.4374L3.95148 23.0593L3.125 23.0188L2.67667 22.3233L1.98117 21.8749L1.94065 21.0485L1.5625 20.3124L1.94065 19.5764L1.98117 18.7499L2.67667 18.3016L3.125 17.6061L3.95148 17.5656L4.6875 17.1874Z" fill="currentColor"/>
</svg>
