<svg width="25" height="25" fill="none" xmlns="http://www.w3.org/2000/svg"><path d="M1.56 0 0 1.56l3.44 4.82c.3.4.77.65 1.27.65h.11c.42 0 .81.17 1.1.46l4.19 4.18L6 15.82a4.7 4.7 0 1 0 3.17 3.16l4.15-4.09 1.51 1.52-.47 1.42c-.19.57-.04 1.18.38 1.6l5.1 5.11a1.56 1.56 0 0 0 2.21 0l2.48-2.48a1.56 1.56 0 0 0 0-2.2l-5.1-5.11a1.56 1.56 0 0 0-1.6-.38l-1.43.47-1.5-1.5 4.18-4.13a4.7 4.7 0 0 0 5.75-5.74L21.5 6.82l-2.75-.57-.57-2.75L21.53.16a4.7 4.7 0 0 0-5.74 5.75l-4.13 4.18-4.17-4.16c-.3-.3-.46-.7-.46-1.1V4.7c0-.5-.24-.98-.65-1.27L1.56 0Zm15.08 16.64c.3-.31.8-.31 1.1 0l4.55 4.55a.78.78 0 0 1-1.1 1.1l-4.55-4.55c-.31-.3-.31-.8 0-1.1Zm-11.95.55.73.38.83.04.45.7.7.44.03.83.38.73-.38.74-.04.82-.7.45-.44.7-.83.04-.73.38-.74-.38-.83-.04-.44-.7-.7-.45-.04-.82-.38-.74.38-.73.04-.83.7-.45.44-.7.83-.03.74-.38Z" fill="currentColor"/></svg>