<svg xmlns="http://www.w3.org/2000/svg" fill="none" color="currentColor" viewBox="0 0 24 24"><path stroke="currentColor" stroke-linecap="round" stroke-linejoin="round" stroke-width="1.5" d="M12.5 22H6.6c-1.55 0-2.78-.75-3.89-1.8-2.26-2.16 1.45-3.88 2.87-4.72a10.67 10.67 0 0 1 7.92-1.18"/><path stroke="currentColor" stroke-width="1.5" d="M16.5 6.5a4.5 4.5 0 1 1-9 0 4.5 4.5 0 0 1 9 0Z"/><path stroke="currentColor" stroke-linecap="round" stroke-width="1.5" d="M16.76 16.38c-1.08 0-1.54.78-1.66 1.26-.12.48-.12 2.22-.05 2.94.24.9.84 1.27 1.43 1.39.54.04 2.82.03 3.48.03.96.01 1.68-.35 1.98-1.42.06-.36.12-2.34-.03-2.94-.32-.96-1.04-1.26-1.64-1.26m-3.51 0h3.5m-3.5 0v-1.26c0-.4-.03-.78.16-1.13.7-1.42 2.75-1.27 3.25.17.09.23.1.61.09.96v1.26"/></svg>