<svg xmlns="http://www.w3.org/2000/svg" fill="none" color="currentColor" viewBox="0 0 24 24"><path stroke="currentColor" stroke-width="1.5" d="M3.79 9.04c-.7.38-2.56 1.16-1.43 2.14A2.9 2.9 0 0 0 4.3 12h4.4a2.9 2.9 0 0 0 1.94-.82c1.13-.98-.72-1.76-1.43-2.14a5.8 5.8 0 0 0-5.42 0ZM8.75 4.27c0 1.26-1 2.28-2.25 2.28a2.26 2.26 0 0 1-2.25-2.28C4.25 3.02 5.25 2 6.5 2a2.26 2.26 0 0 1 2.25 2.27Z"/><path stroke="currentColor" stroke-linecap="round" stroke-linejoin="round" stroke-width="1.5" d="M4 15a6 6 0 0 0 6 6l-.86-1.71M20 9a6 6 0 0 0-6-6l.86 1.71"/><path stroke="currentColor" stroke-width="1.5" d="M14.79 19.04c-.7.38-2.56 1.16-1.43 2.14a2.9 2.9 0 0 0 1.94.82h4.4a2.9 2.9 0 0 0 1.94-.82c1.13-.98-.72-1.76-1.43-2.14a5.8 5.8 0 0 0-5.42 0ZM19.75 14.27c0 1.26-1 2.28-2.25 2.28a2.26 2.26 0 0 1-2.25-2.28c0-1.25 1-2.27 2.25-2.27a2.26 2.26 0 0 1 2.25 2.27Z"/></svg>